<svg width="40" height="40" viewBox="0 0 40 40" fill="none" xmlns="http://www.w3.org/2000/svg">
<path d="M15.1242 0.742188C15.3586 -0.414062 16.382 -1.25 17.5695 -1.25H22.2414C23.4289 -1.25 24.4523 -0.414062 24.6867 0.742188L25.8195 6.21094C26.9211 6.67969 27.9523 7.28125 28.8898 7.99219L34.1867 6.23438C35.3117 5.85938 36.5461 6.32812 37.1398 7.35938L39.4758 11.4062C40.0695 12.4375 39.8586 13.7344 38.968 14.5234L34.8039 18.2266C34.8742 18.8047 34.9055 19.3984 34.9055 20C34.9055 20.6016 34.8664 21.1953 34.8039 21.7734L38.9758 25.4844C39.8664 26.2734 40.0695 27.5781 39.4836 28.6016L37.1476 32.6484C36.5539 33.6719 35.3195 34.1484 34.1945 33.7734L28.8976 32.0156C27.9523 32.7266 26.9211 33.3203 25.8273 33.7969L24.7023 39.2578C24.4601 40.4219 23.4367 41.25 22.257 41.25H17.5851C16.3976 41.25 15.3742 40.4141 15.1398 39.2578L14.0148 33.7969C12.9133 33.3281 11.8898 32.7266 10.9445 32.0156L5.62421 33.7734C4.49921 34.1484 3.26483 33.6797 2.67108 32.6484L0.335143 28.6016C-0.258607 27.5703 -0.047669 26.2734 0.842956 25.4844L5.01483 21.7734C4.94452 21.1953 4.91327 20.6016 4.91327 20C4.91327 19.3984 4.95233 18.8047 5.01483 18.2266L0.842956 14.5156C-0.047669 13.7266 -0.250794 12.4219 0.335143 11.3984L2.67108 7.35156C3.26483 6.32031 4.49921 5.85156 5.62421 6.22656L10.9211 7.98438C11.8664 7.27344 12.8976 6.67969 13.9914 6.20312L15.1242 0.742188ZM19.9055 26.25C20.7262 26.2469 21.5383 26.0822 22.2954 25.7653C23.0525 25.4483 23.7398 24.9854 24.318 24.4028C24.8962 23.8203 25.354 23.1296 25.6652 22.3701C25.9765 21.6107 26.1351 20.7973 26.132 19.9766C26.1289 19.1558 25.9642 18.3437 25.6473 17.5866C25.3304 16.8295 24.8674 16.1422 24.2849 15.564C23.7023 14.9858 23.0116 14.528 22.2521 14.2168C21.4927 13.9055 20.6793 13.7469 19.8586 13.75C19.0378 13.7531 18.2257 13.9178 17.4686 14.2347C16.7115 14.5517 16.0242 15.0146 15.446 15.5972C14.8678 16.1797 14.41 16.8704 14.0988 17.6299C13.7876 18.3893 13.6289 19.2027 13.632 20.0234C13.6351 20.8442 13.7998 21.6563 14.1167 22.4134C14.4337 23.1705 14.8966 23.8578 15.4792 24.436C16.0617 25.0142 16.7524 25.472 17.5119 25.7832C18.2714 26.0945 19.0847 26.2531 19.9055 26.25Z" fill="white"/>
</svg>
