<svg width="35" height="29" viewBox="0 0 35 29" fill="none" xmlns="http://www.w3.org/2000/svg">
<path d="M19.25 0C19.25 -1.03711 18.468 -1.875 17.5 -1.875C16.532 -1.875 15.75 -1.03711 15.75 0V3.75H10.5C7.60156 3.75 5.25 6.26953 5.25 9.375V22.5C5.25 25.6055 7.60156 28.125 10.5 28.125H24.5C27.3984 28.125 29.75 25.6055 29.75 22.5V9.375C29.75 6.26953 27.3984 3.75 24.5 3.75H19.25V0ZM8.75 21.5625C8.75 20.7832 9.33516 20.1562 10.0625 20.1562H11.8125C12.5398 20.1562 13.125 20.7832 13.125 21.5625C13.125 22.3418 12.5398 22.9688 11.8125 22.9688H10.0625C9.33516 22.9688 8.75 22.3418 8.75 21.5625ZM15.3125 21.5625C15.3125 20.7832 15.8977 20.1562 16.625 20.1562H18.375C19.1023 20.1562 19.6875 20.7832 19.6875 21.5625C19.6875 22.3418 19.1023 22.9688 18.375 22.9688H16.625C15.8977 22.9688 15.3125 22.3418 15.3125 21.5625ZM21.875 21.5625C21.875 20.7832 22.4602 20.1562 23.1875 20.1562H24.9375C25.6648 20.1562 26.25 20.7832 26.25 21.5625C26.25 22.3418 25.6648 22.9688 24.9375 22.9688H23.1875C22.4602 22.9688 21.875 22.3418 21.875 21.5625ZM12.25 10.3125C12.5947 10.3125 12.9361 10.3852 13.2545 10.5266C13.573 10.6679 13.8624 10.8751 14.1062 11.1363C14.3499 11.3974 14.5433 11.7075 14.6752 12.0487C14.8071 12.3899 14.875 12.7557 14.875 13.125C14.875 13.4943 14.8071 13.8601 14.6752 14.2013C14.5433 14.5425 14.3499 14.8526 14.1062 15.1137C13.8624 15.3749 13.573 15.5821 13.2545 15.7234C12.9361 15.8648 12.5947 15.9375 12.25 15.9375C11.9053 15.9375 11.5639 15.8648 11.2455 15.7234C10.927 15.5821 10.6376 15.3749 10.3938 15.1137C10.1501 14.8526 9.95673 14.5425 9.82482 14.2013C9.6929 13.8601 9.625 13.4943 9.625 13.125C9.625 12.7557 9.6929 12.3899 9.82482 12.0487C9.95673 11.7075 10.1501 11.3974 10.3938 11.1363C10.6376 10.8751 10.927 10.6679 11.2455 10.5266C11.5639 10.3852 11.9053 10.3125 12.25 10.3125ZM20.125 13.125C20.125 12.3791 20.4016 11.6637 20.8938 11.1363C21.3861 10.6088 22.0538 10.3125 22.75 10.3125C23.4462 10.3125 24.1139 10.6088 24.6062 11.1363C25.0984 11.6637 25.375 12.3791 25.375 13.125C25.375 13.8709 25.0984 14.5863 24.6062 15.1137C24.1139 15.6412 23.4462 15.9375 22.75 15.9375C22.0538 15.9375 21.3861 15.6412 20.8938 15.1137C20.4016 14.5863 20.125 13.8709 20.125 13.125ZM3.5 13.125C3.5 12.0879 2.71797 11.25 1.75 11.25C0.782031 11.25 0 12.0879 0 13.125V18.75C0 19.7871 0.782031 20.625 1.75 20.625C2.71797 20.625 3.5 19.7871 3.5 18.75V13.125ZM33.25 11.25C32.282 11.25 31.5 12.0879 31.5 13.125V18.75C31.5 19.7871 32.282 20.625 33.25 20.625C34.218 20.625 35 19.7871 35 18.75V13.125C35 12.0879 34.218 11.25 33.25 11.25Z" fill="url(#paint0_linear_28_280)"/>
<defs>
<linearGradient id="paint0_linear_28_280" x1="17.5" y1="-1.875" x2="17.5" y2="28.125" gradientUnits="userSpaceOnUse">
<stop stop-color="#252ED6"/>
<stop offset="1" stop-color="#00FF11"/>
</linearGradient>
</defs>
</svg>
