<svg width="40" height="40" viewBox="0 0 40 40" fill="none" xmlns="http://www.w3.org/2000/svg">
<path d="M26 8.75H14L10.8917 2.92969C10.7417 2.64844 10.6667 2.33594 10.6667 2.02344C10.6667 0.90625 11.6333 0 12.825 0H27.175C28.3667 0 29.3333 0.90625 29.3333 2.02344C29.3333 2.33594 29.2583 2.64844 29.1083 2.92969L26 8.75ZM12.8 12.5H27.2L31.2583 15.6719C36.8 20 40 26.4062 40 33.1641C40 36.9375 36.7333 40 32.7083 40H7.28333C3.26667 40 0 36.9375 0 33.1641C0 26.4062 3.2 20 8.74167 15.6719L12.8 12.5ZM20.3333 17.5C19.4167 17.5 18.6667 18.2031 18.6667 19.0625V19.375C16.2667 19.3984 14.3333 21.2266 14.3333 23.4766C14.3333 25.4844 15.875 27.1953 17.9917 27.5234L21.4667 28.0703C21.9667 28.1484 22.3333 28.5547 22.3333 29.0313C22.3333 29.5703 21.8667 30.0078 21.2917 30.0078L16.6667 30C15.75 30 15 30.7031 15 31.5625C15 32.4219 15.75 33.125 16.6667 33.125H18.6667V33.4375C18.6667 34.2969 19.4167 35 20.3333 35C21.25 35 22 34.2969 22 33.4375V33.0703C24.0833 32.75 25.6667 31.0625 25.6667 29.0234C25.6667 27.0156 24.125 25.3047 22.0083 24.9766L18.5333 24.4297C18.0333 24.3516 17.6667 23.9453 17.6667 23.4687C17.6667 22.9297 18.1333 22.4922 18.7083 22.4922H22.6667C23.5833 22.4922 24.3333 21.7891 24.3333 20.9297C24.3333 20.0703 23.5833 19.3672 22.6667 19.3672H22V19.0547C22 18.1953 21.25 17.4922 20.3333 17.4922V17.5Z" fill="white"/>
</svg>
