<svg width="40" height="40" viewBox="0 0 40 40" fill="none" xmlns="http://www.w3.org/2000/svg">
<path d="M0 20C0 14.6957 2.10714 9.60859 5.85786 5.85786C9.60859 2.10714 14.6957 0 20 0C25.3043 0 30.3914 2.10714 34.1421 5.85786C37.8929 9.60859 40 14.6957 40 20C40 25.3043 37.8929 30.3914 34.1421 34.1421C30.3914 37.8929 25.3043 40 20 40C14.6957 40 9.60859 37.8929 5.85786 34.1421C2.10714 30.3914 0 25.3043 0 20ZM25 27.5C25 25.3984 23.7109 23.6016 21.875 22.8672V9.375C21.875 8.33594 21.0391 7.5 20 7.5C18.9609 7.5 18.125 8.33594 18.125 9.375V22.8672C16.2891 23.6094 15 25.4062 15 27.5C15 30.2578 17.2422 32.5 20 32.5C22.7578 32.5 25 30.2578 25 27.5ZM11.25 13.75C11.913 13.75 12.5489 13.4866 13.0178 13.0178C13.4866 12.5489 13.75 11.913 13.75 11.25C13.75 10.587 13.4866 9.95107 13.0178 9.48223C12.5489 9.01339 11.913 8.75 11.25 8.75C10.587 8.75 9.95107 9.01339 9.48223 9.48223C9.01339 9.95107 8.75 10.587 8.75 11.25C8.75 11.913 9.01339 12.5489 9.48223 13.0178C9.95107 13.4866 10.587 13.75 11.25 13.75ZM10 20C10 19.337 9.73661 18.7011 9.26777 18.2322C8.79893 17.7634 8.16304 17.5 7.5 17.5C6.83696 17.5 6.20107 17.7634 5.73223 18.2322C5.26339 18.7011 5 19.337 5 20C5 20.663 5.26339 21.2989 5.73223 21.7678C6.20107 22.2366 6.83696 22.5 7.5 22.5C8.16304 22.5 8.79893 22.2366 9.26777 21.7678C9.73661 21.2989 10 20.663 10 20ZM32.5 22.5C33.163 22.5 33.7989 22.2366 34.2678 21.7678C34.7366 21.2989 35 20.663 35 20C35 19.337 34.7366 18.7011 34.2678 18.2322C33.7989 17.7634 33.163 17.5 32.5 17.5C31.837 17.5 31.2011 17.7634 30.7322 18.2322C30.2634 18.7011 30 19.337 30 20C30 20.663 30.2634 21.2989 30.7322 21.7678C31.2011 22.2366 31.837 22.5 32.5 22.5ZM31.25 11.25C31.25 10.587 30.9866 9.95107 30.5178 9.48223C30.0489 9.01339 29.413 8.75 28.75 8.75C28.087 8.75 27.4511 9.01339 26.9822 9.48223C26.5134 9.95107 26.25 10.587 26.25 11.25C26.25 11.913 26.5134 12.5489 26.9822 13.0178C27.4511 13.4866 28.087 13.75 28.75 13.75C29.413 13.75 30.0489 13.4866 30.5178 13.0178C30.9866 12.5489 31.25 11.913 31.25 11.25Z" fill="white"/>
</svg>
