<svg width="50" height="38" viewBox="0 0 50 38" fill="none" xmlns="http://www.w3.org/2000/svg">
<path d="M27.5 0C27.5 -1.38281 26.3828 -2.5 25 -2.5C23.6172 -2.5 22.5 -1.38281 22.5 0V5H15C10.8594 5 7.5 8.35938 7.5 12.5V30C7.5 34.1406 10.8594 37.5 15 37.5H35C39.1406 37.5 42.5 34.1406 42.5 30V12.5C42.5 8.35938 39.1406 5 35 5H27.5V0ZM12.5 28.75C12.5 27.7109 13.3359 26.875 14.375 26.875H16.875C17.9141 26.875 18.75 27.7109 18.75 28.75C18.75 29.7891 17.9141 30.625 16.875 30.625H14.375C13.3359 30.625 12.5 29.7891 12.5 28.75ZM21.875 28.75C21.875 27.7109 22.7109 26.875 23.75 26.875H26.25C27.2891 26.875 28.125 27.7109 28.125 28.75C28.125 29.7891 27.2891 30.625 26.25 30.625H23.75C22.7109 30.625 21.875 29.7891 21.875 28.75ZM31.25 28.75C31.25 27.7109 32.0859 26.875 33.125 26.875H35.625C36.6641 26.875 37.5 27.7109 37.5 28.75C37.5 29.7891 36.6641 30.625 35.625 30.625H33.125C32.0859 30.625 31.25 29.7891 31.25 28.75ZM17.5 13.75C17.9925 13.75 18.4801 13.847 18.9351 14.0355C19.39 14.2239 19.8034 14.5001 20.1517 14.8483C20.4999 15.1966 20.7761 15.61 20.9645 16.0649C21.153 16.5199 21.25 17.0075 21.25 17.5C21.25 17.9925 21.153 18.4801 20.9645 18.9351C20.7761 19.39 20.4999 19.8034 20.1517 20.1517C19.8034 20.4999 19.39 20.7761 18.9351 20.9645C18.4801 21.153 17.9925 21.25 17.5 21.25C17.0075 21.25 16.5199 21.153 16.0649 20.9645C15.61 20.7761 15.1966 20.4999 14.8483 20.1517C14.5001 19.8034 14.2239 19.39 14.0355 18.9351C13.847 18.4801 13.75 17.9925 13.75 17.5C13.75 17.0075 13.847 16.5199 14.0355 16.0649C14.2239 15.61 14.5001 15.1966 14.8483 14.8483C15.1966 14.5001 15.61 14.2239 16.0649 14.0355C16.5199 13.847 17.0075 13.75 17.5 13.75ZM28.75 17.5C28.75 16.5054 29.1451 15.5516 29.8483 14.8483C30.5516 14.1451 31.5054 13.75 32.5 13.75C33.4946 13.75 34.4484 14.1451 35.1517 14.8483C35.8549 15.5516 36.25 16.5054 36.25 17.5C36.25 18.4946 35.8549 19.4484 35.1517 20.1517C34.4484 20.8549 33.4946 21.25 32.5 21.25C31.5054 21.25 30.5516 20.8549 29.8483 20.1517C29.1451 19.4484 28.75 18.4946 28.75 17.5ZM5 17.5C5 16.1172 3.88281 15 2.5 15C1.11719 15 0 16.1172 0 17.5V25C0 26.3828 1.11719 27.5 2.5 27.5C3.88281 27.5 5 26.3828 5 25V17.5ZM47.5 15C46.1172 15 45 16.1172 45 17.5V25C45 26.3828 46.1172 27.5 47.5 27.5C48.8828 27.5 50 26.3828 50 25V17.5C50 16.1172 48.8828 15 47.5 15Z" fill="white"/>
</svg>
