<svg width="18" height="30" viewBox="0 0 18 30" fill="none" xmlns="http://www.w3.org/2000/svg">
<path d="M7.5 1.40625C7.5 0.626953 8.16875 0 9 0C9.83125 0 10.5 0.626953 10.5 1.40625V3.75H14C15.1063 3.75 16 4.58789 16 5.625C16 6.66211 15.1063 7.5 14 7.5H6.81875C5.2625 7.5 4 8.68359 4 10.1426C4 11.4609 5.03125 12.5742 6.41875 12.7617L12.1438 13.5293C15.5063 13.9805 18 16.6758 18 19.8574C18 23.3906 14.9437 26.25 11.1812 26.25H10.5V28.5938C10.5 29.373 9.83125 30 9 30C8.16875 30 7.5 29.373 7.5 28.5938V26.25H3C1.89375 26.25 1 25.4121 1 24.375C1 23.3379 1.89375 22.5 3 22.5H11.1812C12.7375 22.5 14 21.3164 14 19.8574C14 18.5391 12.9688 17.4258 11.5813 17.2383L5.85625 16.4707C2.49375 16.0254 0 13.3242 0 10.1426C0 6.61523 3.05625 3.75 6.81875 3.75H7.5V1.40625Z" fill="#ECEC49"/>
</svg>
