<svg width="25" height="25" viewBox="0 0 25 25" fill="none" xmlns="http://www.w3.org/2000/svg">
<path d="M19.4824 18.7598C18.4033 16.8848 16.377 15.625 14.0625 15.625H10.9375C8.62305 15.625 6.59668 16.8848 5.51758 18.7598C7.23633 20.6738 9.72656 21.875 12.5 21.875C15.2734 21.875 17.7637 20.6689 19.4824 18.7598ZM0 12.5C0 9.18479 1.31696 6.00537 3.66117 3.66117C6.00537 1.31696 9.18479 0 12.5 0C15.8152 0 18.9946 1.31696 21.3388 3.66117C23.683 6.00537 25 9.18479 25 12.5C25 15.8152 23.683 18.9946 21.3388 21.3388C18.9946 23.683 15.8152 25 12.5 25C9.18479 25 6.00537 23.683 3.66117 21.3388C1.31696 18.9946 0 15.8152 0 12.5ZM12.5 13.2812C13.4324 13.2812 14.3266 12.9109 14.9859 12.2515C15.6452 11.5922 16.0156 10.698 16.0156 9.76562C16.0156 8.83322 15.6452 7.93901 14.9859 7.2797C14.3266 6.6204 13.4324 6.25 12.5 6.25C11.5676 6.25 10.6734 6.6204 10.0141 7.2797C9.35477 7.93901 8.98438 8.83322 8.98438 9.76562C8.98438 10.698 9.35477 11.5922 10.0141 12.2515C10.6734 12.9109 11.5676 13.2812 12.5 13.2812Z" fill="#252ED6"/>
</svg>
