<svg width="25" height="19" viewBox="0 0 25 19" fill="none" xmlns="http://www.w3.org/2000/svg">
<path d="M2.34375 0C1.0498 0 0 1.0498 0 2.34375C0 3.08105 0.34668 3.77441 0.9375 4.21875L11.0938 11.8359C11.9287 12.4609 13.0713 12.4609 13.9062 11.8359L24.0625 4.21875C24.6533 3.77441 25 3.08105 25 2.34375C25 1.0498 23.9502 0 22.6562 0H2.34375ZM0 6.44531V15.625C0 17.3486 1.40137 18.75 3.125 18.75H21.875C23.5986 18.75 25 17.3486 25 15.625V6.44531L15.3125 13.7109C13.6475 14.9609 11.3525 14.9609 9.6875 13.7109L0 6.44531Z" fill="#00FF11"/>
</svg>
