<svg width="157" height="50" viewBox="0 0 157 50" fill="none" xmlns="http://www.w3.org/2000/svg">
<path d="M64.34 22.14L61.88 27.39L60.62 26.82C59.44 26.28 58.53 25.56 57.89 24.66C57.25 23.76 56.93 22.45 56.93 20.73C56.93 18.53 57.5 16.89 58.64 15.81C59.8 14.71 61.71 14.15 64.37 14.13C65.47 14.13 66.47 14.18 67.37 14.28C68.27 14.38 68.99 14.49 69.53 14.61C70.07 14.71 70.34 14.76 70.34 14.76L69.74 19.59C69.74 19.59 69.49 19.56 68.99 19.5C68.51 19.44 67.91 19.39 67.19 19.35C66.47 19.29 65.77 19.26 65.09 19.26C64.37 19.26 63.82 19.37 63.44 19.59C63.08 19.79 62.9 20.18 62.9 20.76C62.9 21.08 63.03 21.34 63.29 21.54C63.55 21.74 63.9 21.94 64.34 22.14ZM63.26 28.05L65.75 22.74L67.04 23.31C68.4 23.91 69.39 24.66 70.01 25.56C70.63 26.44 70.94 27.7 70.94 29.34C70.94 31.56 70.36 33.27 69.2 34.47C68.04 35.67 66.13 36.28 63.47 36.3C62.15 36.3 60.92 36.21 59.78 36.03C58.64 35.87 57.63 35.68 56.75 35.46L57.35 30.63C57.35 30.63 57.59 30.67 58.07 30.75C58.57 30.83 59.23 30.91 60.05 30.99C60.87 31.07 61.77 31.11 62.75 31.11C63.51 31.11 64.08 31 64.46 30.78C64.84 30.56 65.03 30.2 65.03 29.7C65.03 29.36 64.94 29.09 64.76 28.89C64.58 28.69 64.26 28.49 63.8 28.29L63.26 28.05ZM79.8031 22.71V18.84C80.4231 18.62 81.0631 18.51 81.7231 18.51C82.8231 18.51 83.7231 18.75 84.4231 19.23C85.1431 19.69 85.7031 20.33 86.1031 21.15C86.5231 21.97 86.8131 22.9 86.9731 23.94C87.1531 24.96 87.2431 26.04 87.2431 27.18C87.2431 30.46 86.7331 32.8 85.7131 34.2C84.6931 35.6 83.2031 36.3 81.2431 36.3C81.0231 36.3 80.7931 36.28 80.5531 36.24C80.3131 36.22 80.0631 36.19 79.8031 36.15V32.1C80.6031 32 81.1131 31.53 81.3331 30.69C81.5531 29.85 81.6631 28.63 81.6631 27.03C81.6631 25.45 81.5431 24.34 81.3031 23.7C81.0631 23.04 80.6131 22.71 79.9531 22.71H79.8031ZM78.3031 21.09V39.72L72.9031 40.5V18.75H77.4931L78.3031 21.09ZM96.3657 36.3C95.1857 36.3 94.1057 36.17 93.1257 35.91C92.1657 35.65 91.3357 35.19 90.6357 34.53C89.9357 33.87 89.3957 32.96 89.0157 31.8C88.6357 30.64 88.4457 29.16 88.4457 27.36C88.4457 24.56 88.9457 22.42 89.9457 20.94C90.9457 19.44 92.5557 18.63 94.7757 18.51V22.92C94.3357 23.6 94.1157 25.05 94.1157 27.27C94.1157 28.57 94.2157 29.57 94.4157 30.27C94.6157 30.97 94.9957 31.45 95.5557 31.71C96.1357 31.97 96.9557 32.1 98.0157 32.1C98.4757 32.1 98.9457 32.06 99.4257 31.98C99.9257 31.9 100.406 31.81 100.866 31.71V35.79C100.166 35.93 99.4257 36.05 98.6457 36.15C97.8857 36.25 97.1257 36.3 96.3657 36.3ZM95.6157 29.04V25.71H96.6057C96.6057 25.25 96.5857 24.76 96.5457 24.24C96.5257 23.72 96.4257 23.29 96.2457 22.95V18.54C98.1457 18.7 99.5157 19.39 100.356 20.61C101.196 21.81 101.616 23.51 101.616 25.71C101.616 26.27 101.596 26.85 101.556 27.45C101.516 28.03 101.446 28.56 101.346 29.04H95.6157ZM110.155 22.74V18.84C110.815 18.62 111.455 18.51 112.075 18.51C113.455 18.51 114.595 18.94 115.495 19.8C116.415 20.66 116.875 21.95 116.875 23.67V36H111.475V24.54C111.475 23.46 111.035 22.86 110.155 22.74ZM108.655 21.06V36H103.255V18.75H107.845L108.655 21.06ZM127.474 14.16L132.874 13.35V36H128.284L127.474 33.63V14.16ZM125.944 18.66V22.74C125.164 22.82 124.664 23.28 124.444 24.12C124.224 24.96 124.114 26.18 124.114 27.78C124.114 29.36 124.234 30.48 124.474 31.14C124.714 31.78 125.164 32.1 125.824 32.1H125.944V35.97C125.344 36.19 124.714 36.3 124.054 36.3C122.954 36.3 122.044 36.07 121.324 35.61C120.624 35.13 120.064 34.48 119.644 33.66C119.244 32.84 118.954 31.92 118.774 30.9C118.614 29.86 118.534 28.77 118.534 27.63C118.534 24.35 119.044 22.01 120.064 20.61C121.104 19.21 122.594 18.51 124.534 18.51C124.754 18.51 124.984 18.53 125.224 18.57C125.464 18.59 125.704 18.62 125.944 18.66ZM140.676 36H135.276V14.07L140.676 13.35V36ZM151.049 18.75H156.449L151.199 39.78L145.979 40.5L151.049 18.75ZM148.349 24.21L145.829 35.04L142.019 18.75H147.569L148.349 24.21Z" fill="white"/>
<g clip-path="url(#clip0_43_15)">
<path d="M48.8636 23.2954H47.0965C46.7075 18.016 44.4341 13.0522 40.6909 9.309C36.9477 5.56577 31.9839 3.29242 26.7045 2.9034V1.13636C26.704 0.985805 26.644 0.841547 26.5376 0.73509C26.4311 0.628632 26.2868 0.568626 26.1363 0.568176H23.8636C23.713 0.568626 23.5688 0.628632 23.4623 0.73509C23.3558 0.841547 23.2958 0.985805 23.2954 1.13636V2.9034C22.4196 2.96925 21.5486 3.08879 20.6874 3.26136C15.9387 4.19325 11.627 6.65795 8.41433 10.2771C5.20167 13.8962 3.2656 18.4697 2.90334 23.2954H1.1363C0.985744 23.2959 0.841486 23.3559 0.735029 23.4624C0.628571 23.5688 0.568565 23.7131 0.568115 23.8636V26.1364C0.568565 26.2869 0.628571 26.4312 0.735029 26.5376C0.841486 26.6441 0.985744 26.7041 1.1363 26.7045H2.90334C3.29561 31.7034 5.36842 36.4223 8.78432 40.093C12.2002 43.7638 16.7581 46.1701 21.7158 46.9204C22.2329 47 22.7613 47.0568 23.2954 47.0966V48.8636C23.2958 49.0142 23.3558 49.1584 23.4623 49.2649C23.5688 49.3713 23.713 49.4314 23.8636 49.4318H26.1363C26.2868 49.4314 26.4311 49.3713 26.5376 49.2649C26.644 49.1584 26.704 49.0142 26.7045 48.8636V47.0966C31.9839 46.7076 36.9477 44.4342 40.6909 40.691C44.4341 36.9477 46.7075 31.984 47.0965 26.7045H48.8636C49.0141 26.7041 49.1584 26.6441 49.2648 26.5376C49.3713 26.4312 49.4313 26.2869 49.4317 26.1364V23.8636C49.4313 23.7131 49.3713 23.5688 49.2648 23.4624C49.1584 23.3559 49.0141 23.2959 48.8636 23.2954ZM42.0454 26.7045H43.6704C43.2783 31.0721 41.3649 35.1634 38.2641 38.2641C35.1633 41.3649 31.0721 43.2783 26.7045 43.6704V42.0454C26.704 41.8949 26.644 41.7506 26.5376 41.6442C26.4311 41.5377 26.2868 41.4777 26.1363 41.4773H23.8636C23.713 41.4777 23.5688 41.5377 23.4623 41.6442C23.3558 41.7506 23.2958 41.8949 23.2954 42.0454V43.6704C18.9278 43.2783 14.8366 41.3649 11.7358 38.2641C8.635 35.1634 6.72158 31.0721 6.32948 26.7045H7.95448C8.10503 26.7041 8.24929 26.6441 8.35575 26.5376C8.4622 26.4312 8.52221 26.2869 8.52266 26.1364V23.8636C8.52221 23.7131 8.4622 23.5688 8.35575 23.4624C8.24929 23.3559 8.10503 23.2959 7.95448 23.2954H6.32948C6.72158 18.9278 8.635 14.8366 11.7358 11.7358C14.8366 8.63506 18.9278 6.72164 23.2954 6.32954V7.95454C23.2958 8.10509 23.3558 8.24935 23.4623 8.35581C23.5688 8.46227 23.713 8.52227 23.8636 8.52272H26.1363C26.2868 8.52227 26.4311 8.46227 26.5376 8.35581C26.644 8.24935 26.704 8.10509 26.7045 7.95454V6.32954C31.0721 6.72164 35.1633 8.63506 38.2641 11.7358C41.3649 14.8366 43.2783 18.9278 43.6704 23.2954H42.0454C41.8948 23.2959 41.7506 23.3559 41.6441 23.4624C41.5377 23.5688 41.4777 23.7131 41.4772 23.8636V26.1364C41.4777 26.2869 41.5377 26.4312 41.6441 26.5376C41.7506 26.6441 41.8948 26.7041 42.0454 26.7045Z" fill="white"/>
<path d="M26.055 19.35C25.9198 19.3305 25.7961 19.2629 25.7067 19.1595C25.6173 19.0562 25.5681 18.9242 25.5681 18.7875V17.6136H24.4317V18.7875C24.4317 18.9242 24.3825 19.0564 24.2929 19.1597C24.2034 19.263 24.0796 19.3306 23.9442 19.35C23.2916 19.4444 22.6947 19.7705 22.2626 20.2686C21.8305 20.7667 21.5921 21.4037 21.5908 22.0631C21.592 22.5368 21.7152 23.0022 21.9485 23.4144C22.1819 23.8267 22.5176 24.1718 22.9232 24.4165L26.492 26.5585C26.7936 26.7394 27.0276 27.0143 27.1581 27.3409C27.2886 27.6676 27.3084 28.028 27.2145 28.367C27.1205 28.7059 26.918 29.0048 26.638 29.2176C26.358 29.4305 26.0159 29.5456 25.6641 29.5455H24.3351C23.9088 29.5449 23.5 29.3752 23.1986 29.0736C22.8972 28.7721 22.7276 28.3633 22.7272 27.9369V27.8409H21.5908V27.9369C21.5922 28.5964 21.8308 29.2334 22.263 29.7315C22.6952 30.2296 23.2921 30.5556 23.9448 30.65C24.08 30.6696 24.2037 30.7372 24.2931 30.8405C24.3826 30.9438 24.4318 31.0759 24.4317 31.2125V32.3864H25.5681V31.2125C25.5681 31.0759 25.6173 30.9438 25.7067 30.8405C25.7961 30.7372 25.9198 30.6696 26.055 30.65C26.6159 30.5699 27.1381 30.318 27.5499 29.9289C27.9618 29.5399 28.243 29.0329 28.355 28.4775C28.467 27.9222 28.4042 27.3458 28.1753 26.8276C27.9464 26.3094 27.5626 25.8748 27.0766 25.5835L23.5079 23.4415C23.2062 23.2606 22.9722 22.9857 22.8417 22.6591C22.7112 22.3324 22.6914 21.972 22.7853 21.633C22.8793 21.2941 23.0818 20.9953 23.3618 20.7824C23.6418 20.5695 23.984 20.4544 24.3357 20.4546H25.6641C26.0906 20.455 26.4995 20.6246 26.801 20.9262C27.1026 21.2277 27.2722 21.6366 27.2726 22.0631V22.1591H28.409V22.0631C28.4058 21.4041 28.1667 20.7681 27.7348 20.2703C27.3029 19.7726 26.707 19.4461 26.055 19.35Z" fill="white"/>
<path d="M25.0001 13.6364C22.7526 13.6364 20.5556 14.3028 18.6868 15.5515C16.8181 16.8001 15.3616 18.5749 14.5015 20.6513C13.6414 22.7277 13.4164 25.0126 13.8548 27.2169C14.2933 29.4213 15.3756 31.4461 16.9648 33.0353C18.554 34.6245 20.5789 35.7068 22.7832 36.1453C24.9875 36.5837 27.2724 36.3587 29.3488 35.4986C31.4252 34.6385 33.2 33.182 34.4486 31.3133C35.6973 29.4445 36.3638 27.2475 36.3638 25C36.3603 21.9872 35.1619 19.0989 33.0316 16.9685C30.9013 14.8382 28.0129 13.6398 25.0001 13.6364ZM29.5456 22.7273C29.5456 22.878 29.4857 23.0225 29.3792 23.129C29.2726 23.2356 29.1281 23.2954 28.9774 23.2954H26.7047C26.554 23.2954 26.4095 23.2356 26.3029 23.129C26.1963 23.0225 26.1365 22.878 26.1365 22.7273V22.0631C26.1363 21.9379 26.0865 21.8179 25.998 21.7294C25.9095 21.6408 25.7895 21.591 25.6643 21.5909H24.3353C24.2102 21.591 24.0902 21.6408 24.0016 21.7294C23.9131 21.8179 23.8633 21.9379 23.8632 22.0631C23.864 22.1444 23.8854 22.2241 23.9254 22.2949C23.9655 22.3656 24.0229 22.4251 24.0922 22.4676L27.6603 24.6091C28.311 24.999 28.8329 25.5713 29.1616 26.2549C29.4903 26.9385 29.6113 27.7035 29.5096 28.4552C29.4078 29.2069 29.0879 29.9123 28.5894 30.4839C28.0908 31.0556 27.4355 31.4686 26.7047 31.6716V32.9545C26.7047 33.1052 26.6448 33.2497 26.5382 33.3563C26.4317 33.4629 26.2872 33.5227 26.1365 33.5227H23.8638C23.7131 33.5227 23.5685 33.4629 23.462 33.3563C23.3554 33.2497 23.2956 33.1052 23.2956 32.9545V31.6721C22.4795 31.4445 21.7602 30.9563 21.2473 30.282C20.7345 29.6077 20.4561 28.7841 20.4547 27.9369V27.2727C20.4547 27.122 20.5145 26.9775 20.6211 26.871C20.7276 26.7644 20.8722 26.7045 21.0228 26.7045H23.2956C23.4463 26.7045 23.5908 26.7644 23.6973 26.871C23.8039 26.9775 23.8638 27.122 23.8638 27.2727V27.9369C23.8639 28.0621 23.9137 28.1821 24.0022 28.2706C24.0907 28.3591 24.2107 28.4089 24.3359 28.4091H25.6643C25.7895 28.4089 25.9095 28.3591 25.998 28.2706C26.0865 28.1821 26.1363 28.0621 26.1365 27.9369C26.1357 27.8556 26.1143 27.7758 26.0742 27.7051C26.0342 27.6343 25.9768 27.5749 25.9075 27.5324L22.3393 25.3909C21.7658 25.0448 21.291 24.5568 20.9609 23.9739C20.6308 23.391 20.4565 22.7329 20.4547 22.0631C20.4561 21.2158 20.7345 20.3923 21.2473 19.718C21.7602 19.0436 22.4795 18.5555 23.2956 18.3278V17.0454C23.2956 16.8948 23.3554 16.7502 23.462 16.6437C23.5685 16.5371 23.7131 16.4773 23.8638 16.4773H26.1365C26.2872 16.4773 26.4317 16.5371 26.5382 16.6437C26.6448 16.7502 26.7047 16.8948 26.7047 17.0454V18.3278C27.5193 18.558 28.237 19.0468 28.7494 19.7206C29.2619 20.3944 29.5413 21.2165 29.5456 22.0631V22.7273Z" fill="white"/>
<path d="M25 10.2273C22.0783 10.2273 19.2221 11.0937 16.7927 12.7169C14.3634 14.3402 12.4699 16.6474 11.3518 19.3467C10.2337 22.0461 9.94115 25.0164 10.5112 27.882C11.0812 30.7476 12.4881 33.3799 14.5541 35.4459C16.6201 37.5119 19.2524 38.9189 22.118 39.4889C24.9836 40.0589 27.9539 39.7663 30.6533 38.6482C33.3527 37.5301 35.6599 35.6366 37.2831 33.2073C38.9064 30.7779 39.7728 27.9218 39.7728 25C39.7682 21.0834 38.2104 17.3285 35.4409 14.5591C32.6715 11.7896 28.9166 10.2318 25 10.2273ZM25 37.5C22.5278 37.5 20.111 36.7669 18.0554 35.3934C15.9998 34.0198 14.3976 32.0676 13.4515 29.7835C12.5054 27.4995 12.2579 24.9861 12.7402 22.5614C13.2225 20.1366 14.413 17.9093 16.1612 16.1612C17.9094 14.413 20.1366 13.2225 22.5614 12.7402C24.9862 12.2579 27.4995 12.5054 29.7836 13.4515C32.0676 14.3976 34.0199 15.9997 35.3934 18.0554C36.7669 20.111 37.5 22.5277 37.5 25C37.4963 28.314 36.1781 31.4913 33.8347 33.8347C31.4913 36.1781 28.3141 37.4962 25 37.5Z" fill="white"/>
</g>
<defs>
<clipPath id="clip0_43_15">
<rect width="50" height="50" fill="white"/>
</clipPath>
</defs>
</svg>
