<svg width="40" height="35" viewBox="0 0 40 35" fill="none" xmlns="http://www.w3.org/2000/svg">
<path d="M0 30.4165V5.93358C0 4.10191 1.88281 2.88605 3.61719 3.40713C10.4687 5.47566 15.3125 3.84137 20.1875 2.19917C25.2266 0.501711 30.2969 -1.20364 37.6328 1.1649C39.0781 1.63072 40 3.04395 40 4.58351V29.0664C40 30.8981 38.1172 32.114 36.3906 31.5929C29.5391 29.5243 24.6875 31.1586 19.8203 32.8008C14.7812 34.4983 9.71094 36.2036 2.375 33.8351C0.929687 33.3693 0.0078125 31.956 0.0078125 30.4165H0ZM26.25 17.5C26.25 13.3156 23.4531 9.92064 20 9.92064C16.5469 9.92064 13.75 13.3156 13.75 17.5C13.75 21.6844 16.5469 25.0794 20 25.0794C23.4531 25.0794 26.25 21.6844 26.25 17.5ZM9.375 29.9428C9.71875 29.9428 9.99219 29.6428 9.9375 29.3033C9.57812 27.1084 7.82813 25.3952 5.625 25.1188C5.28125 25.0794 5 25.3636 5 25.711V28.8611C5 29.1454 5.1875 29.398 5.46875 29.4691C6.86719 29.8007 8.14844 29.9507 9.375 29.9507V29.9428ZM34.2578 25.9084C34.6484 25.9715 35 25.6715 35 25.2767V21.9134C35 21.566 34.7188 21.2739 34.375 21.3213C32.4062 21.566 30.7891 22.9714 30.2187 24.8425C30.1094 25.2136 30.3984 25.561 30.7812 25.5689C31.8906 25.6004 33.0469 25.7031 34.25 25.9084H34.2578ZM35 9.28903V6.13886C35 5.85463 34.8047 5.60199 34.5312 5.53093C33.1328 5.19933 31.8516 5.04933 30.625 5.04933C30.2812 5.04933 30.0078 5.34934 30.0625 5.68883C30.4219 7.88369 32.1719 9.59694 34.375 9.87327C34.7188 9.91275 35 9.62852 35 9.28113V9.28903ZM9.78125 10.1496C9.89062 9.77853 9.60156 9.43114 9.21875 9.42325C8.10938 9.39167 6.95312 9.28903 5.75 9.08375C5.35937 9.02059 5.00781 9.32061 5.00781 9.71537L5 13.0787C5 13.4261 5.28125 13.7182 5.625 13.6708C7.59375 13.4261 9.21094 12.0208 9.78125 10.1496Z" fill="white"/>
</svg>
