<svg width="25" height="25" viewBox="0 0 25 25" fill="none" xmlns="http://www.w3.org/2000/svg">
<path d="M6.94444 0C7.71267 0 8.33333 0.698242 8.33333 1.5625V3.125H13.8889C14.6571 3.125 15.2778 3.82324 15.2778 4.6875C15.2778 5.55176 14.6571 6.25 13.8889 6.25H13.4722L13.1076 7.37793C12.3958 9.58496 11.3238 11.6016 9.97396 13.335C10.5903 13.7646 11.2326 14.1455 11.901 14.4824L14.0885 15.5762L16.7882 8.74023C17.0095 8.17383 17.5087 7.8125 18.0556 7.8125C18.6024 7.8125 19.1016 8.17383 19.3229 8.74023L24.8785 22.8027C25.191 23.5938 24.8741 24.5166 24.1753 24.8633C23.4766 25.21 22.6519 24.8584 22.3437 24.0723L21.4757 21.875H14.6398L13.7717 24.0723C13.4592 24.8633 12.6389 25.2148 11.9401 24.8633C11.2413 24.5117 10.9245 23.5889 11.237 22.8027L12.9644 18.4326L10.7769 17.3389C9.77865 16.8408 8.82378 16.2451 7.92101 15.5615C6.99653 16.4014 5.98524 17.1338 4.90451 17.7441L3.39844 18.584C2.71267 18.9697 1.87934 18.6572 1.53646 17.8857C1.19358 17.1143 1.47135 16.1768 2.15712 15.791L3.65451 14.9463C4.36198 14.5459 5.03472 14.082 5.6684 13.5645C5.06944 12.9443 4.50521 12.2754 3.98003 11.5674L3.54167 10.9717C3.05122 10.3076 3.12934 9.32129 3.71962 8.76953C4.3099 8.21777 5.18663 8.30566 5.67708 8.96973L6.11979 9.56543C6.61892 10.2441 7.1658 10.874 7.74305 11.4551C8.93663 9.9707 9.87847 8.22754 10.4991 6.30859L10.5208 6.25H1.39323C0.62066 6.25 0 5.55176 0 4.6875C0 3.82324 0.62066 3.125 1.38889 3.125H5.55556V1.5625C5.55556 0.698242 6.17622 0 6.94444 0ZM18.0556 13.2227L15.8724 18.75H20.2387L18.0556 13.2227Z" fill="#252ED6"/>
</svg>
