<svg width="35" height="35" viewBox="0 0 35 35" fill="none" xmlns="http://www.w3.org/2000/svg">
<path d="M10.6797 0.40332L10 2.1875H2.5C1.11719 2.1875 0 3.16504 0 4.375C0 5.58496 1.11719 6.5625 2.5 6.5625H32.5C33.8828 6.5625 35 5.58496 35 4.375C35 3.16504 33.8828 2.1875 32.5 2.1875H25L24.3203 0.40332C23.9766 -0.492188 23.0234 -1.09375 21.9453 -1.09375H13.0547C11.9766 -1.09375 11.0234 -0.492188 10.6797 0.40332ZM32.5 9.84375H2.5L4.14844 31.9307C4.27344 33.6602 5.91406 35 7.89062 35H27.1094C29.0859 35 30.7266 33.6602 30.8516 31.9307L32.5 9.84375Z" fill="white"/>
</svg>
