<svg width="40" height="40" viewBox="0 0 40 40" fill="none" xmlns="http://www.w3.org/2000/svg">
<path d="M19.9967 0C19.0733 0 18.3304 0.810606 18.3304 1.81818V2.72727H18.2054C15.6641 2.72727 13.6089 4.97727 13.6089 7.74242C13.6089 10.2727 15.3378 12.4091 17.636 12.7197L21.8714 13.2955C22.2256 13.3409 22.4963 13.6742 22.4963 14.0682C22.4963 14.5 22.1769 14.8409 21.7881 14.8409L16.664 14.8485C15.5877 14.8485 14.7198 15.7955 14.7198 16.9697C14.7198 18.1439 15.5877 19.0909 16.664 19.0909H18.3304V20C18.3304 21.0076 19.0733 21.8182 19.9967 21.8182C20.9202 21.8182 21.6631 21.0076 21.6631 20V19.0909H21.7881C24.3294 19.0909 26.3846 16.8409 26.3846 14.0758C26.3846 11.5455 24.6557 9.40909 22.3575 9.09849L18.1221 8.52273C17.7679 8.47727 17.4972 8.14394 17.4972 7.75C17.4972 7.31818 17.8165 6.97727 18.2054 6.97727L22.7741 6.9697C23.8503 6.9697 24.7182 6.02273 24.7182 4.84848C24.7182 3.67424 23.8503 2.72727 22.7741 2.72727H21.6631V1.81818C21.6631 0.810606 20.9202 0 19.9967 0ZM7.58904 27.0833L4.63119 30.303H2.22186C0.992894 30.303 0 31.3864 0 32.7273V37.5758C0 38.9167 0.992894 40 2.22186 40H24.4752C26.4887 40 28.4537 39.2955 30.0784 37.9924L38.8687 30.9242C40.1046 29.9318 40.3684 28.0379 39.4589 26.6894C38.5493 25.3409 36.8135 25.053 35.5775 26.0455L27.2595 32.7273H19.4413C18.5178 32.7273 17.7749 31.9167 17.7749 30.9091C17.7749 29.9015 18.5178 29.0909 19.4413 29.0909H24.4405C25.6694 29.0909 26.6623 28.0076 26.6623 26.6667C26.6623 25.3258 25.6694 24.2424 24.4405 24.2424H13.8727C11.519 24.2424 9.25544 25.2652 7.58904 27.0833Z" fill="white"/>
</svg>
