<svg viewBox="0 0 35 35"  xmlns="http://www.w3.org/2000/svg">
<path d="M0 17.5C0 22.1413 1.84374 26.5925 5.12563 29.8744C8.40752 33.1563 12.8587 35 17.5 35C22.1413 35 26.5925 33.1563 29.8744 29.8744C33.1563 26.5925 35 22.1413 35 17.5C35 12.8587 33.1563 8.40752 29.8744 5.12563C26.5925 1.84374 22.1413 0 17.5 0C12.8587 0 8.40752 1.84374 5.12563 5.12563C1.84374 8.40752 0 12.8587 0 17.5ZM26.4756 18.2725L19.3662 25.3818C19.0518 25.6963 18.5801 25.7852 18.1768 25.6211C17.7734 25.457 17.5 25.0537 17.5 24.6094V20.7812H10.9375C9.72754 20.7812 8.75 19.8037 8.75 18.5938V16.4062C8.75 15.1963 9.72754 14.2188 10.9375 14.2188H17.5V10.3906C17.5 9.94629 17.7666 9.5498 18.1768 9.37891C18.5869 9.20801 19.0586 9.30371 19.3662 9.61816L26.4756 16.7275C26.8994 17.1514 26.8994 17.8486 26.4756 18.2725Z" fill='white'/>
</svg>
